<svg class="svg-icon" style="width: 1.25em; height: 1em;vertical-align: middle;fill: white;overflow: hidden;" viewBox="0 0 1280 1024" version="1.1" xmlns="http://www.w3.org/2000/svg"><path d="M1152 384c70.6 0 128-57.4 128-128s-57.4-128-128-128-128 57.4-128 128 57.4 128 128 128zM128 480c-70.6 0-128 57.4-128 128s57.4 128 128 128 128-57.4 128-128-57.4-128-128-128z m899.2-74.4l-38.4-51.2-96 72 38.4 51.2 96-72zM1152 768c-28.8 0-55.2 10-76.6 26l-192-115.2c7.6-22.4 12.6-46 12.6-71 0-123.8-100.2-224-224-224-16.8 0-33.2 2.2-48.8 5.8l-81.6-174.8C562.8 192 576 161.6 576 128c0-70.6-57.4-128-128-128s-128 57.4-128 128 57.4 128 128 128c2.2 0 4.2-0.6 6.4-0.6l82 175.6C483 471.8 448 535.6 448 608c0 123.8 100.2 224 224 224 64.2 0 121.6-27.4 162.4-70.6l191.6 115c-1 6.4-2 13-2 19.6 0 70.6 57.4 128 128 128s128-57.4 128-128-57.4-128-128-128z m-480-64c-53 0-96-43-96-96s43-96 96-96 96 43 96 96-43 96-96 96z m-368-64h96v-64h-96v64z"  /></svg>